<?xml version="1.0" encoding="utf-8"?>
<!DOCTYPE svg PUBLIC "-//W3C//DTD SVG 1.1//EN" "http://www.w3.org/Graphics/SVG/1.1/DTD/svg11.dtd">
<svg version="1.1" id="Layer_1" xmlns="http://www.w3.org/2000/svg" xmlns:xlink="http://www.w3.org/1999/xlink" x="0px" y="0px"
width="1254px" height="1254px" viewBox="0 0 1254 1254" enable-background="new 0 0 1254 1254" xml:space="preserve">
<rect x="0" y="0" width="1254" height="1254" fill="rgb(255,255,255)" /><g transform="translate(76,76)"><g><defs>
    <linearGradient gradientTransform="rotate(90)" id="grad">
    <stop offset="5%" stop-color="rgb(189,29,43)" />
    <stop offset="95%" stop-color="rgb(150,32,126)" />
    </linearGradient>
<mask id="gmask"><g>
<g transform="translate(494,0) scale(2.7142857142857,2.7142857142857)"><g transform="" style="fill: rgb(255, 255, 255);">
    <path d="M13.999,0v14c0,0-9.151-4.381-14-0.551C-0.001,13.449-0.242,0,13.999,0z"/>
</g></g><g transform="translate(532,0) scale(2.7142857142857,2.7142857142857)"><g transform="" style="fill: rgb(255, 255, 255);">
    <path d="M13.999,13.999H0V0.028v-0.029h3.43C9.269-0.001,13.999,6.267,13.999,13.999z"/>
</g></g><g transform="translate(608,0) scale(2.7142857142857,2.7142857142857)"><g transform="" style="fill: rgb(255, 255, 255);">
    <path d="M13.999-0.001v14H0.029H0v-3.431C0,4.729,6.267-0.001,13.999-0.001z"/>
</g></g><g transform="translate(646,0) scale(0.38,0.38)"><g transform="" style="fill: rgb(255, 255, 255);">
<rect width="100" height="100"/>
</g></g><g transform="translate(684,0) scale(0.38,0.38)"><g transform="" style="fill: rgb(255, 255, 255);">
<rect width="100" height="100"/>
</g></g><g transform="translate(722,0) scale(0.38,0.38)"><g transform="" style="fill: rgb(255, 255, 255);">
<rect width="100" height="100"/>
</g></g><g transform="translate(760,0) scale(2.7142857142857,2.7142857142857)"><g transform="" style="fill: rgb(255, 255, 255);">
    <path d="M0,14V0c0,0,9.15,4.38,14,0.55C14,0.55,14.24,14,0,14z"/>
</g></g><g transform="translate(304,38) scale(2.7142857142857,2.7142857142857)"><g transform="" style="fill: rgb(255, 255, 255);">
    <path d="M13.999,0v14c0,0-9.151-4.381-14-0.551C-0.001,13.449-0.242,0,13.999,0z"/>
</g></g><g transform="translate(342,38) scale(2.7142857142857,2.7142857142857)"><g transform="" style="fill: rgb(255, 255, 255);">
    <path d="M13.999,13.999H0V0.028v-0.029h3.43C9.269-0.001,13.999,6.267,13.999,13.999z"/>
</g></g><g transform="translate(456,38) scale(0.076,0.076)"><g transform="" style="fill: rgb(255, 255, 255);">
<path d="M250,0c138.077,0,250,111.93,250,250c0,138.077-111.923,250-250,250C111.93,500,0,388.077,0,250C0,111.93,111.93,0,250,0z"
	/>
</g></g><g transform="translate(532,38) scale(0.38,0.38)"><g transform="" style="fill: rgb(255, 255, 255);">
<rect width="100" height="100"/>
</g></g><g transform="translate(570,38) scale(0.38,0.38)"><g transform="" style="fill: rgb(255, 255, 255);">
<rect width="100" height="100"/>
</g></g><g transform="translate(608,38) scale(2.7142857142857,2.7142857142857)"><g transform="" style="fill: rgb(255, 255, 255);">
    <path d="M0,14V0h13.971H14v3.43C14,9.27,7.732,14,0,14z"/>
</g></g><g transform="translate(684,38) scale(0.38,0.38)"><g transform="" style="fill: rgb(255, 255, 255);">
<rect width="100" height="100"/>
</g></g><g transform="translate(722,38) scale(2.7142857142857,2.7142857142857)"><g transform="" style="fill: rgb(255, 255, 255);">
    <path d="M0,14V0h13.971H14v3.43C14,9.27,7.732,14,0,14z"/>
</g></g><g transform="translate(342,76) scale(2.7142857142857,2.7142857142857)"><g transform="" style="fill: rgb(255, 255, 255);">
    <path d="M-0.001,0l14,0c0,0-4.381,9.151-0.551,14C13.448,14-0.001,14.24-0.001,0z"/>
</g></g><g transform="translate(418,76) scale(0.076,0.076)"><g transform="" style="fill: rgb(255, 255, 255);">
<path d="M250,0c138.077,0,250,111.93,250,250c0,138.077-111.923,250-250,250C111.93,500,0,388.077,0,250C0,111.93,111.93,0,250,0z"
	/>
</g></g><g transform="translate(494,76) scale(2.7142857142857,2.7142857142857)"><g transform="" style="fill: rgb(255, 255, 255);">
    <path d="M13.999-0.001v14H0.029H0v-3.431C0,4.729,6.267-0.001,13.999-0.001z"/>
</g></g><g transform="translate(532,76) scale(0.38,0.38)"><g transform="" style="fill: rgb(255, 255, 255);">
<rect width="100" height="100"/>
</g></g><g transform="translate(570,76) scale(2.7142857142857,2.7142857142857)"><g transform="" style="fill: rgb(255, 255, 255);">
    <path d="M0,14V0h13.971H14v3.43C14,9.27,7.732,14,0,14z"/>
</g></g><g transform="translate(684,76) scale(0.38,0.38)"><g transform="" style="fill: rgb(255, 255, 255);">
<rect width="100" height="100"/>
</g></g><g transform="translate(456,114) scale(2.7142857142857,2.7142857142857)"><g transform="" style="fill: rgb(255, 255, 255);">
    <path d="M13.999,0v14c0,0-9.151-4.381-14-0.551C-0.001,13.449-0.242,0,13.999,0z"/>
</g></g><g transform="translate(494,114) scale(0.38,0.38)"><g transform="" style="fill: rgb(255, 255, 255);">
<rect width="100" height="100"/>
</g></g><g transform="translate(532,114) scale(0.38,0.38)"><g transform="" style="fill: rgb(255, 255, 255);">
<rect width="100" height="100"/>
</g></g><g transform="translate(684,114) scale(0.38,0.38)"><g transform="" style="fill: rgb(255, 255, 255);">
<rect width="100" height="100"/>
</g></g><g transform="translate(722,114) scale(0.38,0.38)"><g transform="" style="fill: rgb(255, 255, 255);">
<rect width="100" height="100"/>
</g></g><g transform="translate(760,114) scale(2.7142857142857,2.7142857142857)"><g transform="" style="fill: rgb(255, 255, 255);">
    <path d="M0,14V0c0,0,9.15,4.38,14,0.55C14,0.55,14.24,14,0,14z"/>
</g></g><g transform="translate(304,152) scale(2.7142857142857,2.7142857142857)"><g transform="" style="fill: rgb(255, 255, 255);">
    <path d="M13.999,0v14c0,0-9.151-4.381-14-0.551C-0.001,13.449-0.242,0,13.999,0z"/>
</g></g><g transform="translate(342,152) scale(2.7142857142857,2.7142857142857)"><g transform="" style="fill: rgb(255, 255, 255);">
    <path d="M0,14V0c0,0,9.15,4.38,14,0.55C14,0.55,14.24,14,0,14z"/>
</g></g><g transform="translate(532,152) scale(2.7142857142857,2.7142857142857)"><g transform="" style="fill: rgb(255, 255, 255);">
        <path d="M0-0.001h14v13.97v0.029l-3.431,0.001C4.731,13.999,0,7.731,0-0.001z"/>
</g></g><g transform="translate(570,152) scale(0.38,0.38)"><g transform="" style="fill: rgb(255, 255, 255);">
<rect width="100" height="100"/>
</g></g><g transform="translate(608,152) scale(0.38,0.38)"><g transform="" style="fill: rgb(255, 255, 255);">
<rect width="100" height="100"/>
</g></g><g transform="translate(646,152) scale(0.38,0.38)"><g transform="" style="fill: rgb(255, 255, 255);">
<rect width="100" height="100"/>
</g></g><g transform="translate(684,152) scale(0.38,0.38)"><g transform="" style="fill: rgb(255, 255, 255);">
<rect width="100" height="100"/>
</g></g><g transform="translate(722,152) scale(0.38,0.38)"><g transform="" style="fill: rgb(255, 255, 255);">
<rect width="100" height="100"/>
</g></g><g transform="translate(418,190) scale(0.076,0.076)"><g transform="" style="fill: rgb(255, 255, 255);">
<path d="M250,0c138.077,0,250,111.93,250,250c0,138.077-111.923,250-250,250C111.93,500,0,388.077,0,250C0,111.93,111.93,0,250,0z"
	/>
</g></g><g transform="translate(494,190) scale(0.076,0.076)"><g transform="" style="fill: rgb(255, 255, 255);">
<path d="M250,0c138.077,0,250,111.93,250,250c0,138.077-111.923,250-250,250C111.93,500,0,388.077,0,250C0,111.93,111.93,0,250,0z"
	/>
</g></g><g transform="translate(570,190) scale(2.7142857142857,2.7142857142857)"><g transform="" style="fill: rgb(255, 255, 255);">
        <path d="M0-0.001h14v13.97v0.029l-3.431,0.001C4.731,13.999,0,7.731,0-0.001z"/>
</g></g><g transform="translate(608,190) scale(0.38,0.38)"><g transform="" style="fill: rgb(255, 255, 255);">
<rect width="100" height="100"/>
</g></g><g transform="translate(684,190) scale(0.38,0.38)"><g transform="" style="fill: rgb(255, 255, 255);">
<rect width="100" height="100"/>
</g></g><g transform="translate(722,190) scale(2.7142857142857,2.7142857142857)"><g transform="" style="fill: rgb(255, 255, 255);">
    <path d="M0,14V0h13.971H14v3.43C14,9.27,7.732,14,0,14z"/>
</g></g><g transform="translate(304,228) scale(0.076,0.076)"><g transform="" style="fill: rgb(255, 255, 255);">
<path d="M250,0c138.077,0,250,111.93,250,250c0,138.077-111.923,250-250,250C111.93,500,0,388.077,0,250C0,111.93,111.93,0,250,0z"
	/>
</g></g><g transform="translate(380,228) scale(2.7142857142857,2.7142857142857)"><g transform="" style="fill: rgb(255, 255, 255);">
    <path d="M14,14H0c0,0,4.38-9.15,0.55-14C0.55,0,14-0.24,14,14z"/>
</g></g><g transform="translate(456,228) scale(2.7142857142857,2.7142857142857)"><g transform="" style="fill: rgb(255, 255, 255);">
    <path d="M14,14H0c0,0,4.38-9.15,0.55-14C0.55,0,14-0.24,14,14z"/>
</g></g><g transform="translate(532,228) scale(2.7142857142857,2.7142857142857)"><g transform="" style="fill: rgb(255, 255, 255);">
    <path d="M14,14H0c0,0,4.38-9.15,0.55-14C0.55,0,14-0.24,14,14z"/>
</g></g><g transform="translate(608,228) scale(0.38,0.38)"><g transform="" style="fill: rgb(255, 255, 255);">
<rect width="100" height="100"/>
</g></g><g transform="translate(684,228) scale(0.38,0.38)"><g transform="" style="fill: rgb(255, 255, 255);">
<rect width="100" height="100"/>
</g></g><g transform="translate(760,228) scale(2.7142857142857,2.7142857142857)"><g transform="" style="fill: rgb(255, 255, 255);">
    <path d="M14,14H0c0,0,4.38-9.15,0.55-14C0.55,0,14-0.24,14,14z"/>
</g></g><g transform="translate(380,266) scale(2.7142857142857,2.7142857142857)"><g transform="" style="fill: rgb(255, 255, 255);">
        <path d="M0-0.001h14v13.97v0.029l-3.431,0.001C4.731,13.999,0,7.731,0-0.001z"/>
</g></g><g transform="translate(418,266) scale(0.38,0.38)"><g transform="" style="fill: rgb(255, 255, 255);">
<rect width="100" height="100"/>
</g></g><g transform="translate(456,266) scale(0.38,0.38)"><g transform="" style="fill: rgb(255, 255, 255);">
<rect width="100" height="100"/>
</g></g><g transform="translate(494,266) scale(0.38,0.38)"><g transform="" style="fill: rgb(255, 255, 255);">
<rect width="100" height="100"/>
</g></g><g transform="translate(532,266) scale(0.38,0.38)"><g transform="" style="fill: rgb(255, 255, 255);">
<rect width="100" height="100"/>
</g></g><g transform="translate(570,266) scale(0.38,0.38)"><g transform="" style="fill: rgb(255, 255, 255);">
<rect width="100" height="100"/>
</g></g><g transform="translate(608,266) scale(0.38,0.38)"><g transform="" style="fill: rgb(255, 255, 255);">
<rect width="100" height="100"/>
</g></g><g transform="translate(646,266) scale(0.38,0.38)"><g transform="" style="fill: rgb(255, 255, 255);">
<rect width="100" height="100"/>
</g></g><g transform="translate(684,266) scale(2.7142857142857,2.7142857142857)"><g transform="" style="fill: rgb(255, 255, 255);">
    <path d="M0,14V0h13.971H14v3.43C14,9.27,7.732,14,0,14z"/>
</g></g><g transform="translate(760,266) scale(2.7142857142857,2.7142857142857)"><g transform="" style="fill: rgb(255, 255, 255);">
    <path d="M-0.001,0l14,0c0,0-4.381,9.151-0.551,14C13.448,14-0.001,14.24-0.001,0z"/>
</g></g><g transform="translate(0,304) scale(2.7142857142857,2.7142857142857)"><g transform="" style="fill: rgb(255, 255, 255);">
    <path d="M14,14H0c0,0,4.38-9.15,0.55-14C0.55,0,14-0.24,14,14z"/>
</g></g><g transform="translate(76,304) scale(0.076,0.076)"><g transform="" style="fill: rgb(255, 255, 255);">
<path d="M250,0c138.077,0,250,111.93,250,250c0,138.077-111.923,250-250,250C111.93,500,0,388.077,0,250C0,111.93,111.93,0,250,0z"
	/>
</g></g><g transform="translate(152,304) scale(2.7142857142857,2.7142857142857)"><g transform="" style="fill: rgb(255, 255, 255);">
    <path d="M14,14H0c0,0,4.38-9.15,0.55-14C0.55,0,14-0.24,14,14z"/>
</g></g><g transform="translate(228,304) scale(0.076,0.076)"><g transform="" style="fill: rgb(255, 255, 255);">
<path d="M250,0c138.077,0,250,111.93,250,250c0,138.077-111.923,250-250,250C111.93,500,0,388.077,0,250C0,111.93,111.93,0,250,0z"
	/>
</g></g><g transform="translate(456,304) scale(0.38,0.38)"><g transform="" style="fill: rgb(255, 255, 255);">
<rect width="100" height="100"/>
</g></g><g transform="translate(532,304) scale(0.38,0.38)"><g transform="" style="fill: rgb(255, 255, 255);">
<rect width="100" height="100"/>
</g></g><g transform="translate(570,304) scale(0.38,0.38)"><g transform="" style="fill: rgb(255, 255, 255);">
<rect width="100" height="100"/>
</g></g><g transform="translate(608,304) scale(0.38,0.38)"><g transform="" style="fill: rgb(255, 255, 255);">
<rect width="100" height="100"/>
</g></g><g transform="translate(646,304) scale(2.7142857142857,2.7142857142857)"><g transform="" style="fill: rgb(255, 255, 255);">
    <path d="M0,14V0h13.971H14v3.43C14,9.27,7.732,14,0,14z"/>
</g></g><g transform="translate(912,304) scale(0.076,0.076)"><g transform="" style="fill: rgb(255, 255, 255);">
<path d="M250,0c138.077,0,250,111.93,250,250c0,138.077-111.923,250-250,250C111.93,500,0,388.077,0,250C0,111.93,111.93,0,250,0z"
	/>
</g></g><g transform="translate(1026,304) scale(0.076,0.076)"><g transform="" style="fill: rgb(255, 255, 255);">
<path d="M250,0c138.077,0,250,111.93,250,250c0,138.077-111.923,250-250,250C111.93,500,0,388.077,0,250C0,111.93,111.93,0,250,0z"
	/>
</g></g><g transform="translate(0,342) scale(2.7142857142857,2.7142857142857)"><g transform="" style="fill: rgb(255, 255, 255);">
    <path d="M-0.001,0l14,0c0,0-4.381,9.151-0.551,14C13.448,14-0.001,14.24-0.001,0z"/>
</g></g><g transform="translate(152,342) scale(2.7142857142857,2.7142857142857)"><g transform="" style="fill: rgb(255, 255, 255);">
    <path d="M-0.001,0l14,0c0,0-4.381,9.151-0.551,14C13.448,14-0.001,14.24-0.001,0z"/>
</g></g><g transform="translate(266,342) scale(2.7142857142857,2.7142857142857)"><g transform="" style="fill: rgb(255, 255, 255);">
    <path d="M13.999,0v14c0,0-9.151-4.381-14-0.551C-0.001,13.449-0.242,0,13.999,0z"/>
</g></g><g transform="translate(304,342) scale(0.38,0.38)"><g transform="" style="fill: rgb(255, 255, 255);">
<rect width="100" height="100"/>
</g></g><g transform="translate(342,342) scale(0.38,0.38)"><g transform="" style="fill: rgb(255, 255, 255);">
<rect width="100" height="100"/>
</g></g><g transform="translate(380,342) scale(2.7142857142857,2.7142857142857)"><g transform="" style="fill: rgb(255, 255, 255);">
    <path d="M0,14V0c0,0,9.15,4.38,14,0.55C14,0.55,14.24,14,0,14z"/>
</g></g><g transform="translate(456,342) scale(2.7142857142857,2.7142857142857)"><g transform="" style="fill: rgb(255, 255, 255);">
    <path d="M-0.001,0l14,0c0,0-4.381,9.151-0.551,14C13.448,14-0.001,14.24-0.001,0z"/>
</g></g><g transform="translate(532,342) scale(2.7142857142857,2.7142857142857)"><g transform="" style="fill: rgb(255, 255, 255);">
    <path d="M-0.001,0l14,0c0,0-4.381,9.151-0.551,14C13.448,14-0.001,14.24-0.001,0z"/>
</g></g><g transform="translate(608,342) scale(2.7142857142857,2.7142857142857)"><g transform="" style="fill: rgb(255, 255, 255);">
    <path d="M-0.001,0l14,0c0,0-4.381,9.151-0.551,14C13.448,14-0.001,14.24-0.001,0z"/>
</g></g><g transform="translate(760,342) scale(2.7142857142857,2.7142857142857)"><g transform="" style="fill: rgb(255, 255, 255);">
    <path d="M13.999-0.001v14H0.029H0v-3.431C0,4.729,6.267-0.001,13.999-0.001z"/>
</g></g><g transform="translate(798,342) scale(0.38,0.38)"><g transform="" style="fill: rgb(255, 255, 255);">
<rect width="100" height="100"/>
</g></g><g transform="translate(836,342) scale(2.7142857142857,2.7142857142857)"><g transform="" style="fill: rgb(255, 255, 255);">
    <path d="M13.999,13.999H0V0.028v-0.029h3.43C9.269-0.001,13.999,6.267,13.999,13.999z"/>
</g></g><g transform="translate(950,342) scale(0.076,0.076)"><g transform="" style="fill: rgb(255, 255, 255);">
<path d="M250,0c138.077,0,250,111.93,250,250c0,138.077-111.923,250-250,250C111.93,500,0,388.077,0,250C0,111.93,111.93,0,250,0z"
	/>
</g></g><g transform="translate(1064,342) scale(2.7142857142857,2.7142857142857)"><g transform="" style="fill: rgb(255, 255, 255);">
    <path d="M14,14H0c0,0,4.38-9.15,0.55-14C0.55,0,14-0.24,14,14z"/>
</g></g><g transform="translate(38,380) scale(2.7142857142857,2.7142857142857)"><g transform="" style="fill: rgb(255, 255, 255);">
    <path d="M13.999-0.001v14H0.029H0v-3.431C0,4.729,6.267-0.001,13.999-0.001z"/>
</g></g><g transform="translate(76,380) scale(0.38,0.38)"><g transform="" style="fill: rgb(255, 255, 255);">
<rect width="100" height="100"/>
</g></g><g transform="translate(114,380) scale(2.7142857142857,2.7142857142857)"><g transform="" style="fill: rgb(255, 255, 255);">
    <path d="M13.999,13.999H0V0.028v-0.029h3.43C9.269-0.001,13.999,6.267,13.999,13.999z"/>
</g></g><g transform="translate(190,380) scale(2.7142857142857,2.7142857142857)"><g transform="" style="fill: rgb(255, 255, 255);">
    <path d="M13.999,0v14c0,0-9.151-4.381-14-0.551C-0.001,13.449-0.242,0,13.999,0z"/>
</g></g><g transform="translate(228,380) scale(2.7142857142857,2.7142857142857)"><g transform="" style="fill: rgb(255, 255, 255);">
    <path d="M0,14V0c0,0,9.15,4.38,14,0.55C14,0.55,14.24,14,0,14z"/>
</g></g><g transform="translate(342,380) scale(0.38,0.38)"><g transform="" style="fill: rgb(255, 255, 255);">
<rect width="100" height="100"/>
</g></g><g transform="translate(418,380) scale(2.7142857142857,2.7142857142857)"><g transform="" style="fill: rgb(255, 255, 255);">
    <path d="M14,14H0c0,0,4.38-9.15,0.55-14C0.55,0,14-0.24,14,14z"/>
</g></g><g transform="translate(494,380) scale(0.076,0.076)"><g transform="" style="fill: rgb(255, 255, 255);">
<path d="M250,0c138.077,0,250,111.93,250,250c0,138.077-111.923,250-250,250C111.93,500,0,388.077,0,250C0,111.93,111.93,0,250,0z"
	/>
</g></g><g transform="translate(646,380) scale(2.7142857142857,2.7142857142857)"><g transform="" style="fill: rgb(255, 255, 255);">
    <path d="M14,14H0c0,0,4.38-9.15,0.55-14C0.55,0,14-0.24,14,14z"/>
</g></g><g transform="translate(760,380) scale(2.7142857142857,2.7142857142857)"><g transform="" style="fill: rgb(255, 255, 255);">
        <path d="M0-0.001h14v13.97v0.029l-3.431,0.001C4.731,13.999,0,7.731,0-0.001z"/>
</g></g><g transform="translate(798,380) scale(0.38,0.38)"><g transform="" style="fill: rgb(255, 255, 255);">
<rect width="100" height="100"/>
</g></g><g transform="translate(836,380) scale(0.38,0.38)"><g transform="" style="fill: rgb(255, 255, 255);">
<rect width="100" height="100"/>
</g></g><g transform="translate(912,380) scale(0.076,0.076)"><g transform="" style="fill: rgb(255, 255, 255);">
<path d="M250,0c138.077,0,250,111.93,250,250c0,138.077-111.923,250-250,250C111.93,500,0,388.077,0,250C0,111.93,111.93,0,250,0z"
	/>
</g></g><g transform="translate(988,380) scale(2.7142857142857,2.7142857142857)"><g transform="" style="fill: rgb(255, 255, 255);">
    <path d="M13.999,0v14c0,0-9.151-4.381-14-0.551C-0.001,13.449-0.242,0,13.999,0z"/>
</g></g><g transform="translate(1026,380) scale(0.38,0.38)"><g transform="" style="fill: rgb(255, 255, 255);">
<rect width="100" height="100"/>
</g></g><g transform="translate(1064,380) scale(2.7142857142857,2.7142857142857)"><g transform="" style="fill: rgb(255, 255, 255);">
    <path d="M0,14V0h13.971H14v3.43C14,9.27,7.732,14,0,14z"/>
</g></g><g transform="translate(38,418) scale(0.38,0.38)"><g transform="" style="fill: rgb(255, 255, 255);">
<rect width="100" height="100"/>
</g></g><g transform="translate(114,418) scale(0.38,0.38)"><g transform="" style="fill: rgb(255, 255, 255);">
<rect width="100" height="100"/>
</g></g><g transform="translate(152,418) scale(2.7142857142857,2.7142857142857)"><g transform="" style="fill: rgb(255, 255, 255);">
    <path d="M0,14V0c0,0,9.15,4.38,14,0.55C14,0.55,14.24,14,0,14z"/>
</g></g><g transform="translate(266,418) scale(2.7142857142857,2.7142857142857)"><g transform="" style="fill: rgb(255, 255, 255);">
    <path d="M13.999-0.001v14H0.029H0v-3.431C0,4.729,6.267-0.001,13.999-0.001z"/>
</g></g><g transform="translate(304,418) scale(0.38,0.38)"><g transform="" style="fill: rgb(255, 255, 255);">
<rect width="100" height="100"/>
</g></g><g transform="translate(342,418) scale(2.7142857142857,2.7142857142857)"><g transform="" style="fill: rgb(255, 255, 255);">
    <path d="M0,14V0h13.971H14v3.43C14,9.27,7.732,14,0,14z"/>
</g></g><g transform="translate(418,418) scale(2.7142857142857,2.7142857142857)"><g transform="" style="fill: rgb(255, 255, 255);">
        <path d="M0-0.001h14v13.97v0.029l-3.431,0.001C4.731,13.999,0,7.731,0-0.001z"/>
</g></g><g transform="translate(456,418) scale(2.7142857142857,2.7142857142857)"><g transform="" style="fill: rgb(255, 255, 255);">
    <path d="M13.999,13.999H0V0.028v-0.029h3.43C9.269-0.001,13.999,6.267,13.999,13.999z"/>
</g></g><g transform="translate(608,418) scale(2.7142857142857,2.7142857142857)"><g transform="" style="fill: rgb(255, 255, 255);">
    <path d="M13.999-0.001v14H0.029H0v-3.431C0,4.729,6.267-0.001,13.999-0.001z"/>
</g></g><g transform="translate(646,418) scale(0.38,0.38)"><g transform="" style="fill: rgb(255, 255, 255);">
<rect width="100" height="100"/>
</g></g><g transform="translate(722,418) scale(2.7142857142857,2.7142857142857)"><g transform="" style="fill: rgb(255, 255, 255);">
    <path d="M14,14H0c0,0,4.38-9.15,0.55-14C0.55,0,14-0.24,14,14z"/>
</g></g><g transform="translate(798,418) scale(0.38,0.38)"><g transform="" style="fill: rgb(255, 255, 255);">
<rect width="100" height="100"/>
</g></g><g transform="translate(836,418) scale(0.38,0.38)"><g transform="" style="fill: rgb(255, 255, 255);">
<rect width="100" height="100"/>
</g></g><g transform="translate(1026,418) scale(0.38,0.38)"><g transform="" style="fill: rgb(255, 255, 255);">
<rect width="100" height="100"/>
</g></g><g transform="translate(0,456) scale(2.7142857142857,2.7142857142857)"><g transform="" style="fill: rgb(255, 255, 255);">
    <path d="M13.999-0.001v14H0.029H0v-3.431C0,4.729,6.267-0.001,13.999-0.001z"/>
</g></g><g transform="translate(38,456) scale(2.7142857142857,2.7142857142857)"><g transform="" style="fill: rgb(255, 255, 255);">
    <path d="M0,14V0h13.971H14v3.43C14,9.27,7.732,14,0,14z"/>
</g></g><g transform="translate(114,456) scale(0.38,0.38)"><g transform="" style="fill: rgb(255, 255, 255);">
<rect width="100" height="100"/>
</g></g><g transform="translate(228,456) scale(2.7142857142857,2.7142857142857)"><g transform="" style="fill: rgb(255, 255, 255);">
    <path d="M13.999,0v14c0,0-9.151-4.381-14-0.551C-0.001,13.449-0.242,0,13.999,0z"/>
</g></g><g transform="translate(266,456) scale(2.7142857142857,2.7142857142857)"><g transform="" style="fill: rgb(255, 255, 255);">
    <path d="M0,14V0h13.971H14v3.43C14,9.27,7.732,14,0,14z"/>
</g></g><g transform="translate(456,456) scale(2.7142857142857,2.7142857142857)"><g transform="" style="fill: rgb(255, 255, 255);">
    <path d="M-0.001,0l14,0c0,0-4.381,9.151-0.551,14C13.448,14-0.001,14.24-0.001,0z"/>
</g></g><g transform="translate(570,456) scale(2.7142857142857,2.7142857142857)"><g transform="" style="fill: rgb(255, 255, 255);">
    <path d="M13.999,0v14c0,0-9.151-4.381-14-0.551C-0.001,13.449-0.242,0,13.999,0z"/>
</g></g><g transform="translate(608,456) scale(0.38,0.38)"><g transform="" style="fill: rgb(255, 255, 255);">
<rect width="100" height="100"/>
</g></g><g transform="translate(646,456) scale(0.38,0.38)"><g transform="" style="fill: rgb(255, 255, 255);">
<rect width="100" height="100"/>
</g></g><g transform="translate(722,456) scale(2.7142857142857,2.7142857142857)"><g transform="" style="fill: rgb(255, 255, 255);">
        <path d="M0-0.001h14v13.97v0.029l-3.431,0.001C4.731,13.999,0,7.731,0-0.001z"/>
</g></g><g transform="translate(760,456) scale(0.38,0.38)"><g transform="" style="fill: rgb(255, 255, 255);">
<rect width="100" height="100"/>
</g></g><g transform="translate(798,456) scale(0.38,0.38)"><g transform="" style="fill: rgb(255, 255, 255);">
<rect width="100" height="100"/>
</g></g><g transform="translate(836,456) scale(0.38,0.38)"><g transform="" style="fill: rgb(255, 255, 255);">
<rect width="100" height="100"/>
</g></g><g transform="translate(874,456) scale(2.7142857142857,2.7142857142857)"><g transform="" style="fill: rgb(255, 255, 255);">
    <path d="M0,14V0c0,0,9.15,4.38,14,0.55C14,0.55,14.24,14,0,14z"/>
</g></g><g transform="translate(950,456) scale(2.7142857142857,2.7142857142857)"><g transform="" style="fill: rgb(255, 255, 255);">
    <path d="M14,14H0c0,0,4.38-9.15,0.55-14C0.55,0,14-0.24,14,14z"/>
</g></g><g transform="translate(1026,456) scale(2.7142857142857,2.7142857142857)"><g transform="" style="fill: rgb(255, 255, 255);">
        <path d="M0-0.001h14v13.97v0.029l-3.431,0.001C4.731,13.999,0,7.731,0-0.001z"/>
</g></g><g transform="translate(1064,456) scale(2.7142857142857,2.7142857142857)"><g transform="" style="fill: rgb(255, 255, 255);">
    <path d="M13.999,13.999H0V0.028v-0.029h3.43C9.269-0.001,13.999,6.267,13.999,13.999z"/>
</g></g><g transform="translate(0,494) scale(0.38,0.38)"><g transform="" style="fill: rgb(255, 255, 255);">
<rect width="100" height="100"/>
</g></g><g transform="translate(76,494) scale(2.7142857142857,2.7142857142857)"><g transform="" style="fill: rgb(255, 255, 255);">
    <path d="M13.999,0v14c0,0-9.151-4.381-14-0.551C-0.001,13.449-0.242,0,13.999,0z"/>
</g></g><g transform="translate(114,494) scale(2.7142857142857,2.7142857142857)"><g transform="" style="fill: rgb(255, 255, 255);">
    <path d="M0,14V0h13.971H14v3.43C14,9.27,7.732,14,0,14z"/>
</g></g><g transform="translate(190,494) scale(2.7142857142857,2.7142857142857)"><g transform="" style="fill: rgb(255, 255, 255);">
    <path d="M14,14H0c0,0,4.38-9.15,0.55-14C0.55,0,14-0.24,14,14z"/>
</g></g><g transform="translate(304,494) scale(2.7142857142857,2.7142857142857)"><g transform="" style="fill: rgb(255, 255, 255);">
    <path d="M14,14H0c0,0,4.38-9.15,0.55-14C0.55,0,14-0.24,14,14z"/>
</g></g><g transform="translate(380,494) scale(2.7142857142857,2.7142857142857)"><g transform="" style="fill: rgb(255, 255, 255);">
    <path d="M13.999,0v14c0,0-9.151-4.381-14-0.551C-0.001,13.449-0.242,0,13.999,0z"/>
</g></g><g transform="translate(418,494) scale(2.7142857142857,2.7142857142857)"><g transform="" style="fill: rgb(255, 255, 255);">
    <path d="M0,14V0c0,0,9.15,4.38,14,0.55C14,0.55,14.24,14,0,14z"/>
</g></g><g transform="translate(494,494) scale(0.076,0.076)"><g transform="" style="fill: rgb(255, 255, 255);">
<path d="M250,0c138.077,0,250,111.93,250,250c0,138.077-111.923,250-250,250C111.93,500,0,388.077,0,250C0,111.93,111.93,0,250,0z"
	/>
</g></g><g transform="translate(608,494) scale(2.7142857142857,2.7142857142857)"><g transform="" style="fill: rgb(255, 255, 255);">
        <path d="M0-0.001h14v13.97v0.029l-3.431,0.001C4.731,13.999,0,7.731,0-0.001z"/>
</g></g><g transform="translate(646,494) scale(0.38,0.38)"><g transform="" style="fill: rgb(255, 255, 255);">
<rect width="100" height="100"/>
</g></g><g transform="translate(684,494) scale(2.7142857142857,2.7142857142857)"><g transform="" style="fill: rgb(255, 255, 255);">
    <path d="M13.999,13.999H0V0.028v-0.029h3.43C9.269-0.001,13.999,6.267,13.999,13.999z"/>
</g></g><g transform="translate(760,494) scale(0.38,0.38)"><g transform="" style="fill: rgb(255, 255, 255);">
<rect width="100" height="100"/>
</g></g><g transform="translate(798,494) scale(0.38,0.38)"><g transform="" style="fill: rgb(255, 255, 255);">
<rect width="100" height="100"/>
</g></g><g transform="translate(836,494) scale(2.7142857142857,2.7142857142857)"><g transform="" style="fill: rgb(255, 255, 255);">
    <path d="M0,14V0h13.971H14v3.43C14,9.27,7.732,14,0,14z"/>
</g></g><g transform="translate(950,494) scale(0.38,0.38)"><g transform="" style="fill: rgb(255, 255, 255);">
<rect width="100" height="100"/>
</g></g><g transform="translate(1064,494) scale(0.38,0.38)"><g transform="" style="fill: rgb(255, 255, 255);">
<rect width="100" height="100"/>
</g></g><g transform="translate(0,532) scale(2.7142857142857,2.7142857142857)"><g transform="" style="fill: rgb(255, 255, 255);">
        <path d="M0-0.001h14v13.97v0.029l-3.431,0.001C4.731,13.999,0,7.731,0-0.001z"/>
</g></g><g transform="translate(38,532) scale(2.7142857142857,2.7142857142857)"><g transform="" style="fill: rgb(255, 255, 255);">
    <path d="M0,14V0c0,0,9.15,4.38,14,0.55C14,0.55,14.24,14,0,14z"/>
</g></g><g transform="translate(190,532) scale(2.7142857142857,2.7142857142857)"><g transform="" style="fill: rgb(255, 255, 255);">
        <path d="M0-0.001h14v13.97v0.029l-3.431,0.001C4.731,13.999,0,7.731,0-0.001z"/>
</g></g><g transform="translate(228,532) scale(0.38,0.38)"><g transform="" style="fill: rgb(255, 255, 255);">
<rect width="100" height="100"/>
</g></g><g transform="translate(266,532) scale(0.38,0.38)"><g transform="" style="fill: rgb(255, 255, 255);">
<rect width="100" height="100"/>
</g></g><g transform="translate(304,532) scale(2.7142857142857,2.7142857142857)"><g transform="" style="fill: rgb(255, 255, 255);">
    <path d="M0,14V0h13.971H14v3.43C14,9.27,7.732,14,0,14z"/>
</g></g><g transform="translate(456,532) scale(0.076,0.076)"><g transform="" style="fill: rgb(255, 255, 255);">
<path d="M250,0c138.077,0,250,111.93,250,250c0,138.077-111.923,250-250,250C111.93,500,0,388.077,0,250C0,111.93,111.93,0,250,0z"
	/>
</g></g><g transform="translate(532,532) scale(2.7142857142857,2.7142857142857)"><g transform="" style="fill: rgb(255, 255, 255);">
    <path d="M14,14H0c0,0,4.38-9.15,0.55-14C0.55,0,14-0.24,14,14z"/>
</g></g><g transform="translate(646,532) scale(0.38,0.38)"><g transform="" style="fill: rgb(255, 255, 255);">
<rect width="100" height="100"/>
</g></g><g transform="translate(684,532) scale(2.7142857142857,2.7142857142857)"><g transform="" style="fill: rgb(255, 255, 255);">
    <path d="M0,14V0h13.971H14v3.43C14,9.27,7.732,14,0,14z"/>
</g></g><g transform="translate(760,532) scale(0.38,0.38)"><g transform="" style="fill: rgb(255, 255, 255);">
<rect width="100" height="100"/>
</g></g><g transform="translate(798,532) scale(2.7142857142857,2.7142857142857)"><g transform="" style="fill: rgb(255, 255, 255);">
    <path d="M0,14V0h13.971H14v3.43C14,9.27,7.732,14,0,14z"/>
</g></g><g transform="translate(950,532) scale(0.38,0.38)"><g transform="" style="fill: rgb(255, 255, 255);">
<rect width="100" height="100"/>
</g></g><g transform="translate(1026,532) scale(2.7142857142857,2.7142857142857)"><g transform="" style="fill: rgb(255, 255, 255);">
    <path d="M13.999-0.001v14H0.029H0v-3.431C0,4.729,6.267-0.001,13.999-0.001z"/>
</g></g><g transform="translate(1064,532) scale(2.7142857142857,2.7142857142857)"><g transform="" style="fill: rgb(255, 255, 255);">
    <path d="M0,14V0h13.971H14v3.43C14,9.27,7.732,14,0,14z"/>
</g></g><g transform="translate(76,570) scale(2.7142857142857,2.7142857142857)"><g transform="" style="fill: rgb(255, 255, 255);">
    <path d="M13.999,0v14c0,0-9.151-4.381-14-0.551C-0.001,13.449-0.242,0,13.999,0z"/>
</g></g><g transform="translate(114,570) scale(0.38,0.38)"><g transform="" style="fill: rgb(255, 255, 255);">
<rect width="100" height="100"/>
</g></g><g transform="translate(152,570) scale(2.7142857142857,2.7142857142857)"><g transform="" style="fill: rgb(255, 255, 255);">
    <path d="M0,14V0c0,0,9.15,4.38,14,0.55C14,0.55,14.24,14,0,14z"/>
</g></g><g transform="translate(342,570) scale(2.7142857142857,2.7142857142857)"><g transform="" style="fill: rgb(255, 255, 255);">
    <path d="M13.999-0.001v14H0.029H0v-3.431C0,4.729,6.267-0.001,13.999-0.001z"/>
</g></g><g transform="translate(380,570) scale(2.7142857142857,2.7142857142857)"><g transform="" style="fill: rgb(255, 255, 255);">
    <path d="M0,14V0c0,0,9.15,4.38,14,0.55C14,0.55,14.24,14,0,14z"/>
</g></g><g transform="translate(494,570) scale(2.7142857142857,2.7142857142857)"><g transform="" style="fill: rgb(255, 255, 255);">
    <path d="M13.999,0v14c0,0-9.151-4.381-14-0.551C-0.001,13.449-0.242,0,13.999,0z"/>
</g></g><g transform="translate(532,570) scale(0.38,0.38)"><g transform="" style="fill: rgb(255, 255, 255);">
<rect width="100" height="100"/>
</g></g><g transform="translate(646,570) scale(0.38,0.38)"><g transform="" style="fill: rgb(255, 255, 255);">
<rect width="100" height="100"/>
</g></g><g transform="translate(760,570) scale(2.7142857142857,2.7142857142857)"><g transform="" style="fill: rgb(255, 255, 255);">
    <path d="M-0.001,0l14,0c0,0-4.381,9.151-0.551,14C13.448,14-0.001,14.24-0.001,0z"/>
</g></g><g transform="translate(836,570) scale(2.7142857142857,2.7142857142857)"><g transform="" style="fill: rgb(255, 255, 255);">
    <path d="M13.999-0.001v14H0.029H0v-3.431C0,4.729,6.267-0.001,13.999-0.001z"/>
</g></g><g transform="translate(874,570) scale(2.7142857142857,2.7142857142857)"><g transform="" style="fill: rgb(255, 255, 255);">
    <path d="M13.999,13.999H0V0.028v-0.029h3.43C9.269-0.001,13.999,6.267,13.999,13.999z"/>
</g></g><g transform="translate(950,570) scale(0.38,0.38)"><g transform="" style="fill: rgb(255, 255, 255);">
<rect width="100" height="100"/>
</g></g><g transform="translate(1026,570) scale(0.38,0.38)"><g transform="" style="fill: rgb(255, 255, 255);">
<rect width="100" height="100"/>
</g></g><g transform="translate(38,608) scale(0.076,0.076)"><g transform="" style="fill: rgb(255, 255, 255);">
<path d="M250,0c138.077,0,250,111.93,250,250c0,138.077-111.923,250-250,250C111.93,500,0,388.077,0,250C0,111.93,111.93,0,250,0z"
	/>
</g></g><g transform="translate(114,608) scale(0.38,0.38)"><g transform="" style="fill: rgb(255, 255, 255);">
<rect width="100" height="100"/>
</g></g><g transform="translate(228,608) scale(2.7142857142857,2.7142857142857)"><g transform="" style="fill: rgb(255, 255, 255);">
    <path d="M13.999,0v14c0,0-9.151-4.381-14-0.551C-0.001,13.449-0.242,0,13.999,0z"/>
</g></g><g transform="translate(266,608) scale(2.7142857142857,2.7142857142857)"><g transform="" style="fill: rgb(255, 255, 255);">
    <path d="M0,14V0c0,0,9.15,4.38,14,0.55C14,0.55,14.24,14,0,14z"/>
</g></g><g transform="translate(342,608) scale(0.38,0.38)"><g transform="" style="fill: rgb(255, 255, 255);">
<rect width="100" height="100"/>
</g></g><g transform="translate(418,608) scale(2.7142857142857,2.7142857142857)"><g transform="" style="fill: rgb(255, 255, 255);">
    <path d="M14,14H0c0,0,4.38-9.15,0.55-14C0.55,0,14-0.24,14,14z"/>
</g></g><g transform="translate(532,608) scale(0.38,0.38)"><g transform="" style="fill: rgb(255, 255, 255);">
<rect width="100" height="100"/>
</g></g><g transform="translate(608,608) scale(2.7142857142857,2.7142857142857)"><g transform="" style="fill: rgb(255, 255, 255);">
    <path d="M13.999-0.001v14H0.029H0v-3.431C0,4.729,6.267-0.001,13.999-0.001z"/>
</g></g><g transform="translate(646,608) scale(0.38,0.38)"><g transform="" style="fill: rgb(255, 255, 255);">
<rect width="100" height="100"/>
</g></g><g transform="translate(798,608) scale(2.7142857142857,2.7142857142857)"><g transform="" style="fill: rgb(255, 255, 255);">
    <path d="M13.999-0.001v14H0.029H0v-3.431C0,4.729,6.267-0.001,13.999-0.001z"/>
</g></g><g transform="translate(836,608) scale(0.38,0.38)"><g transform="" style="fill: rgb(255, 255, 255);">
<rect width="100" height="100"/>
</g></g><g transform="translate(874,608) scale(2.7142857142857,2.7142857142857)"><g transform="" style="fill: rgb(255, 255, 255);">
    <path d="M0,14V0h13.971H14v3.43C14,9.27,7.732,14,0,14z"/>
</g></g><g transform="translate(950,608) scale(0.38,0.38)"><g transform="" style="fill: rgb(255, 255, 255);">
<rect width="100" height="100"/>
</g></g><g transform="translate(1026,608) scale(2.7142857142857,2.7142857142857)"><g transform="" style="fill: rgb(255, 255, 255);">
        <path d="M0-0.001h14v13.97v0.029l-3.431,0.001C4.731,13.999,0,7.731,0-0.001z"/>
</g></g><g transform="translate(1064,608) scale(2.7142857142857,2.7142857142857)"><g transform="" style="fill: rgb(255, 255, 255);">
    <path d="M13.999,13.999H0V0.028v-0.029h3.43C9.269-0.001,13.999,6.267,13.999,13.999z"/>
</g></g><g transform="translate(114,646) scale(0.38,0.38)"><g transform="" style="fill: rgb(255, 255, 255);">
<rect width="100" height="100"/>
</g></g><g transform="translate(342,646) scale(0.38,0.38)"><g transform="" style="fill: rgb(255, 255, 255);">
<rect width="100" height="100"/>
</g></g><g transform="translate(418,646) scale(0.38,0.38)"><g transform="" style="fill: rgb(255, 255, 255);">
<rect width="100" height="100"/>
</g></g><g transform="translate(532,646) scale(2.7142857142857,2.7142857142857)"><g transform="" style="fill: rgb(255, 255, 255);">
    <path d="M-0.001,0l14,0c0,0-4.381,9.151-0.551,14C13.448,14-0.001,14.24-0.001,0z"/>
</g></g><g transform="translate(608,646) scale(0.38,0.38)"><g transform="" style="fill: rgb(255, 255, 255);">
<rect width="100" height="100"/>
</g></g><g transform="translate(646,646) scale(2.7142857142857,2.7142857142857)"><g transform="" style="fill: rgb(255, 255, 255);">
    <path d="M0,14V0h13.971H14v3.43C14,9.27,7.732,14,0,14z"/>
</g></g><g transform="translate(798,646) scale(0.38,0.38)"><g transform="" style="fill: rgb(255, 255, 255);">
<rect width="100" height="100"/>
</g></g><g transform="translate(836,646) scale(2.7142857142857,2.7142857142857)"><g transform="" style="fill: rgb(255, 255, 255);">
    <path d="M0,14V0h13.971H14v3.43C14,9.27,7.732,14,0,14z"/>
</g></g><g transform="translate(950,646) scale(2.7142857142857,2.7142857142857)"><g transform="" style="fill: rgb(255, 255, 255);">
        <path d="M0-0.001h14v13.97v0.029l-3.431,0.001C4.731,13.999,0,7.731,0-0.001z"/>
</g></g><g transform="translate(988,646) scale(2.7142857142857,2.7142857142857)"><g transform="" style="fill: rgb(255, 255, 255);">
    <path d="M0,14V0c0,0,9.15,4.38,14,0.55C14,0.55,14.24,14,0,14z"/>
</g></g><g transform="translate(1064,646) scale(0.38,0.38)"><g transform="" style="fill: rgb(255, 255, 255);">
<rect width="100" height="100"/>
</g></g><g transform="translate(0,684) scale(0.076,0.076)"><g transform="" style="fill: rgb(255, 255, 255);">
<path d="M250,0c138.077,0,250,111.93,250,250c0,138.077-111.923,250-250,250C111.93,500,0,388.077,0,250C0,111.93,111.93,0,250,0z"
	/>
</g></g><g transform="translate(114,684) scale(2.7142857142857,2.7142857142857)"><g transform="" style="fill: rgb(255, 255, 255);">
    <path d="M-0.001,0l14,0c0,0-4.381,9.151-0.551,14C13.448,14-0.001,14.24-0.001,0z"/>
</g></g><g transform="translate(190,684) scale(2.7142857142857,2.7142857142857)"><g transform="" style="fill: rgb(255, 255, 255);">
    <path d="M13.999,0v14c0,0-9.151-4.381-14-0.551C-0.001,13.449-0.242,0,13.999,0z"/>
</g></g><g transform="translate(228,684) scale(2.7142857142857,2.7142857142857)"><g transform="" style="fill: rgb(255, 255, 255);">
    <path d="M0,14V0c0,0,9.15,4.38,14,0.55C14,0.55,14.24,14,0,14z"/>
</g></g><g transform="translate(342,684) scale(2.7142857142857,2.7142857142857)"><g transform="" style="fill: rgb(255, 255, 255);">
        <path d="M0-0.001h14v13.97v0.029l-3.431,0.001C4.731,13.999,0,7.731,0-0.001z"/>
</g></g><g transform="translate(380,684) scale(0.38,0.38)"><g transform="" style="fill: rgb(255, 255, 255);">
<rect width="100" height="100"/>
</g></g><g transform="translate(418,684) scale(0.38,0.38)"><g transform="" style="fill: rgb(255, 255, 255);">
<rect width="100" height="100"/>
</g></g><g transform="translate(456,684) scale(0.38,0.38)"><g transform="" style="fill: rgb(255, 255, 255);">
<rect width="100" height="100"/>
</g></g><g transform="translate(494,684) scale(2.7142857142857,2.7142857142857)"><g transform="" style="fill: rgb(255, 255, 255);">
    <path d="M0,14V0c0,0,9.15,4.38,14,0.55C14,0.55,14.24,14,0,14z"/>
</g></g><g transform="translate(608,684) scale(0.38,0.38)"><g transform="" style="fill: rgb(255, 255, 255);">
<rect width="100" height="100"/>
</g></g><g transform="translate(798,684) scale(0.38,0.38)"><g transform="" style="fill: rgb(255, 255, 255);">
<rect width="100" height="100"/>
</g></g><g transform="translate(874,684) scale(0.076,0.076)"><g transform="" style="fill: rgb(255, 255, 255);">
<path d="M250,0c138.077,0,250,111.93,250,250c0,138.077-111.923,250-250,250C111.93,500,0,388.077,0,250C0,111.93,111.93,0,250,0z"
	/>
</g></g><g transform="translate(1026,684) scale(2.7142857142857,2.7142857142857)"><g transform="" style="fill: rgb(255, 255, 255);">
    <path d="M13.999-0.001v14H0.029H0v-3.431C0,4.729,6.267-0.001,13.999-0.001z"/>
</g></g><g transform="translate(1064,684) scale(2.7142857142857,2.7142857142857)"><g transform="" style="fill: rgb(255, 255, 255);">
    <path d="M0,14V0h13.971H14v3.43C14,9.27,7.732,14,0,14z"/>
</g></g><g transform="translate(38,722) scale(2.7142857142857,2.7142857142857)"><g transform="" style="fill: rgb(255, 255, 255);">
    <path d="M13.999,0v14c0,0-9.151-4.381-14-0.551C-0.001,13.449-0.242,0,13.999,0z"/>
</g></g><g transform="translate(76,722) scale(2.7142857142857,2.7142857142857)"><g transform="" style="fill: rgb(255, 255, 255);">
    <path d="M13.999,13.999H0V0.028v-0.029h3.43C9.269-0.001,13.999,6.267,13.999,13.999z"/>
</g></g><g transform="translate(266,722) scale(2.7142857142857,2.7142857142857)"><g transform="" style="fill: rgb(255, 255, 255);">
    <path d="M14,14H0c0,0,4.38-9.15,0.55-14C0.55,0,14-0.24,14,14z"/>
</g></g><g transform="translate(380,722) scale(2.7142857142857,2.7142857142857)"><g transform="" style="fill: rgb(255, 255, 255);">
    <path d="M-0.001,0l14,0c0,0-4.381,9.151-0.551,14C13.448,14-0.001,14.24-0.001,0z"/>
</g></g><g transform="translate(456,722) scale(2.7142857142857,2.7142857142857)"><g transform="" style="fill: rgb(255, 255, 255);">
    <path d="M-0.001,0l14,0c0,0-4.381,9.151-0.551,14C13.448,14-0.001,14.24-0.001,0z"/>
</g></g><g transform="translate(608,722) scale(0.38,0.38)"><g transform="" style="fill: rgb(255, 255, 255);">
<rect width="100" height="100"/>
</g></g><g transform="translate(646,722) scale(0.38,0.38)"><g transform="" style="fill: rgb(255, 255, 255);">
<rect width="100" height="100"/>
</g></g><g transform="translate(684,722) scale(0.38,0.38)"><g transform="" style="fill: rgb(255, 255, 255);">
<rect width="100" height="100"/>
</g></g><g transform="translate(722,722) scale(0.38,0.38)"><g transform="" style="fill: rgb(255, 255, 255);">
<rect width="100" height="100"/>
</g></g><g transform="translate(760,722) scale(0.38,0.38)"><g transform="" style="fill: rgb(255, 255, 255);">
<rect width="100" height="100"/>
</g></g><g transform="translate(798,722) scale(0.38,0.38)"><g transform="" style="fill: rgb(255, 255, 255);">
<rect width="100" height="100"/>
</g></g><g transform="translate(912,722) scale(2.7142857142857,2.7142857142857)"><g transform="" style="fill: rgb(255, 255, 255);">
    <path d="M13.999-0.001v14H0.029H0v-3.431C0,4.729,6.267-0.001,13.999-0.001z"/>
</g></g><g transform="translate(950,722) scale(2.7142857142857,2.7142857142857)"><g transform="" style="fill: rgb(255, 255, 255);">
    <path d="M0,14V0c0,0,9.15,4.38,14,0.55C14,0.55,14.24,14,0,14z"/>
</g></g><g transform="translate(1026,722) scale(2.7142857142857,2.7142857142857)"><g transform="" style="fill: rgb(255, 255, 255);">
    <path d="M-0.001,0l14,0c0,0-4.381,9.151-0.551,14C13.448,14-0.001,14.24-0.001,0z"/>
</g></g><g transform="translate(0,760) scale(0.076,0.076)"><g transform="" style="fill: rgb(255, 255, 255);">
<path d="M250,0c138.077,0,250,111.93,250,250c0,138.077-111.923,250-250,250C111.93,500,0,388.077,0,250C0,111.93,111.93,0,250,0z"
	/>
</g></g><g transform="translate(76,760) scale(2.7142857142857,2.7142857142857)"><g transform="" style="fill: rgb(255, 255, 255);">
    <path d="M-0.001,0l14,0c0,0-4.381,9.151-0.551,14C13.448,14-0.001,14.24-0.001,0z"/>
</g></g><g transform="translate(152,760) scale(0.076,0.076)"><g transform="" style="fill: rgb(255, 255, 255);">
<path d="M250,0c138.077,0,250,111.93,250,250c0,138.077-111.923,250-250,250C111.93,500,0,388.077,0,250C0,111.93,111.93,0,250,0z"
	/>
</g></g><g transform="translate(228,760) scale(2.7142857142857,2.7142857142857)"><g transform="" style="fill: rgb(255, 255, 255);">
    <path d="M13.999,0v14c0,0-9.151-4.381-14-0.551C-0.001,13.449-0.242,0,13.999,0z"/>
</g></g><g transform="translate(266,760) scale(0.38,0.38)"><g transform="" style="fill: rgb(255, 255, 255);">
<rect width="100" height="100"/>
</g></g><g transform="translate(304,760) scale(0.38,0.38)"><g transform="" style="fill: rgb(255, 255, 255);">
<rect width="100" height="100"/>
</g></g><g transform="translate(342,760) scale(2.7142857142857,2.7142857142857)"><g transform="" style="fill: rgb(255, 255, 255);">
    <path d="M13.999,13.999H0V0.028v-0.029h3.43C9.269-0.001,13.999,6.267,13.999,13.999z"/>
</g></g><g transform="translate(570,760) scale(2.7142857142857,2.7142857142857)"><g transform="" style="fill: rgb(255, 255, 255);">
    <path d="M13.999,0v14c0,0-9.151-4.381-14-0.551C-0.001,13.449-0.242,0,13.999,0z"/>
</g></g><g transform="translate(608,760) scale(0.38,0.38)"><g transform="" style="fill: rgb(255, 255, 255);">
<rect width="100" height="100"/>
</g></g><g transform="translate(646,760) scale(2.7142857142857,2.7142857142857)"><g transform="" style="fill: rgb(255, 255, 255);">
    <path d="M0,14V0h13.971H14v3.43C14,9.27,7.732,14,0,14z"/>
</g></g><g transform="translate(722,760) scale(0.38,0.38)"><g transform="" style="fill: rgb(255, 255, 255);">
<rect width="100" height="100"/>
</g></g><g transform="translate(760,760) scale(0.38,0.38)"><g transform="" style="fill: rgb(255, 255, 255);">
<rect width="100" height="100"/>
</g></g><g transform="translate(798,760) scale(0.38,0.38)"><g transform="" style="fill: rgb(255, 255, 255);">
<rect width="100" height="100"/>
</g></g><g transform="translate(836,760) scale(0.38,0.38)"><g transform="" style="fill: rgb(255, 255, 255);">
<rect width="100" height="100"/>
</g></g><g transform="translate(874,760) scale(0.38,0.38)"><g transform="" style="fill: rgb(255, 255, 255);">
<rect width="100" height="100"/>
</g></g><g transform="translate(912,760) scale(0.38,0.38)"><g transform="" style="fill: rgb(255, 255, 255);">
<rect width="100" height="100"/>
</g></g><g transform="translate(304,798) scale(2.7142857142857,2.7142857142857)"><g transform="" style="fill: rgb(255, 255, 255);">
        <path d="M0-0.001h14v13.97v0.029l-3.431,0.001C4.731,13.999,0,7.731,0-0.001z"/>
</g></g><g transform="translate(342,798) scale(0.38,0.38)"><g transform="" style="fill: rgb(255, 255, 255);">
<rect width="100" height="100"/>
</g></g><g transform="translate(418,798) scale(2.7142857142857,2.7142857142857)"><g transform="" style="fill: rgb(255, 255, 255);">
    <path d="M13.999,0v14c0,0-9.151-4.381-14-0.551C-0.001,13.449-0.242,0,13.999,0z"/>
</g></g><g transform="translate(456,798) scale(0.38,0.38)"><g transform="" style="fill: rgb(255, 255, 255);">
<rect width="100" height="100"/>
</g></g><g transform="translate(494,798) scale(2.7142857142857,2.7142857142857)"><g transform="" style="fill: rgb(255, 255, 255);">
    <path d="M0,14V0c0,0,9.15,4.38,14,0.55C14,0.55,14.24,14,0,14z"/>
</g></g><g transform="translate(722,798) scale(0.38,0.38)"><g transform="" style="fill: rgb(255, 255, 255);">
<rect width="100" height="100"/>
</g></g><g transform="translate(760,798) scale(0.38,0.38)"><g transform="" style="fill: rgb(255, 255, 255);">
<rect width="100" height="100"/>
</g></g><g transform="translate(912,798) scale(0.38,0.38)"><g transform="" style="fill: rgb(255, 255, 255);">
<rect width="100" height="100"/>
</g></g><g transform="translate(988,798) scale(2.7142857142857,2.7142857142857)"><g transform="" style="fill: rgb(255, 255, 255);">
    <path d="M13.999,0v14c0,0-9.151-4.381-14-0.551C-0.001,13.449-0.242,0,13.999,0z"/>
</g></g><g transform="translate(1026,798) scale(0.38,0.38)"><g transform="" style="fill: rgb(255, 255, 255);">
<rect width="100" height="100"/>
</g></g><g transform="translate(1064,798) scale(2.7142857142857,2.7142857142857)"><g transform="" style="fill: rgb(255, 255, 255);">
    <path d="M13.999,13.999H0V0.028v-0.029h3.43C9.269-0.001,13.999,6.267,13.999,13.999z"/>
</g></g><g transform="translate(342,836) scale(0.38,0.38)"><g transform="" style="fill: rgb(255, 255, 255);">
<rect width="100" height="100"/>
</g></g><g transform="translate(380,836) scale(2.7142857142857,2.7142857142857)"><g transform="" style="fill: rgb(255, 255, 255);">
    <path d="M0,14V0c0,0,9.15,4.38,14,0.55C14,0.55,14.24,14,0,14z"/>
</g></g><g transform="translate(532,836) scale(2.7142857142857,2.7142857142857)"><g transform="" style="fill: rgb(255, 255, 255);">
    <path d="M14,14H0c0,0,4.38-9.15,0.55-14C0.55,0,14-0.24,14,14z"/>
</g></g><g transform="translate(608,836) scale(2.7142857142857,2.7142857142857)"><g transform="" style="fill: rgb(255, 255, 255);">
    <path d="M13.999,0v14c0,0-9.151-4.381-14-0.551C-0.001,13.449-0.242,0,13.999,0z"/>
</g></g><g transform="translate(646,836) scale(2.7142857142857,2.7142857142857)"><g transform="" style="fill: rgb(255, 255, 255);">
    <path d="M13.999,13.999H0V0.028v-0.029h3.43C9.269-0.001,13.999,6.267,13.999,13.999z"/>
</g></g><g transform="translate(722,836) scale(0.38,0.38)"><g transform="" style="fill: rgb(255, 255, 255);">
<rect width="100" height="100"/>
</g></g><g transform="translate(760,836) scale(0.38,0.38)"><g transform="" style="fill: rgb(255, 255, 255);">
<rect width="100" height="100"/>
</g></g><g transform="translate(836,836) scale(0.076,0.076)"><g transform="" style="fill: rgb(255, 255, 255);">
<path d="M250,0c138.077,0,250,111.93,250,250c0,138.077-111.923,250-250,250C111.93,500,0,388.077,0,250C0,111.93,111.93,0,250,0z"
	/>
</g></g><g transform="translate(912,836) scale(0.38,0.38)"><g transform="" style="fill: rgb(255, 255, 255);">
<rect width="100" height="100"/>
</g></g><g transform="translate(950,836) scale(2.7142857142857,2.7142857142857)"><g transform="" style="fill: rgb(255, 255, 255);">
    <path d="M13.999,13.999H0V0.028v-0.029h3.43C9.269-0.001,13.999,6.267,13.999,13.999z"/>
</g></g><g transform="translate(1026,836) scale(0.38,0.38)"><g transform="" style="fill: rgb(255, 255, 255);">
<rect width="100" height="100"/>
</g></g><g transform="translate(1064,836) scale(2.7142857142857,2.7142857142857)"><g transform="" style="fill: rgb(255, 255, 255);">
    <path d="M0,14V0h13.971H14v3.43C14,9.27,7.732,14,0,14z"/>
</g></g><g transform="translate(342,874) scale(0.38,0.38)"><g transform="" style="fill: rgb(255, 255, 255);">
<rect width="100" height="100"/>
</g></g><g transform="translate(418,874) scale(2.7142857142857,2.7142857142857)"><g transform="" style="fill: rgb(255, 255, 255);">
    <path d="M13.999-0.001v14H0.029H0v-3.431C0,4.729,6.267-0.001,13.999-0.001z"/>
</g></g><g transform="translate(456,874) scale(0.38,0.38)"><g transform="" style="fill: rgb(255, 255, 255);">
<rect width="100" height="100"/>
</g></g><g transform="translate(494,874) scale(0.38,0.38)"><g transform="" style="fill: rgb(255, 255, 255);">
<rect width="100" height="100"/>
</g></g><g transform="translate(532,874) scale(0.38,0.38)"><g transform="" style="fill: rgb(255, 255, 255);">
<rect width="100" height="100"/>
</g></g><g transform="translate(646,874) scale(0.38,0.38)"><g transform="" style="fill: rgb(255, 255, 255);">
<rect width="100" height="100"/>
</g></g><g transform="translate(722,874) scale(2.7142857142857,2.7142857142857)"><g transform="" style="fill: rgb(255, 255, 255);">
        <path d="M0-0.001h14v13.97v0.029l-3.431,0.001C4.731,13.999,0,7.731,0-0.001z"/>
</g></g><g transform="translate(760,874) scale(0.38,0.38)"><g transform="" style="fill: rgb(255, 255, 255);">
<rect width="100" height="100"/>
</g></g><g transform="translate(912,874) scale(0.38,0.38)"><g transform="" style="fill: rgb(255, 255, 255);">
<rect width="100" height="100"/>
</g></g><g transform="translate(950,874) scale(2.7142857142857,2.7142857142857)"><g transform="" style="fill: rgb(255, 255, 255);">
    <path d="M0,14V0h13.971H14v3.43C14,9.27,7.732,14,0,14z"/>
</g></g><g transform="translate(1026,874) scale(0.38,0.38)"><g transform="" style="fill: rgb(255, 255, 255);">
<rect width="100" height="100"/>
</g></g><g transform="translate(304,912) scale(2.7142857142857,2.7142857142857)"><g transform="" style="fill: rgb(255, 255, 255);">
    <path d="M13.999,0v14c0,0-9.151-4.381-14-0.551C-0.001,13.449-0.242,0,13.999,0z"/>
</g></g><g transform="translate(342,912) scale(0.38,0.38)"><g transform="" style="fill: rgb(255, 255, 255);">
<rect width="100" height="100"/>
</g></g><g transform="translate(380,912) scale(0.38,0.38)"><g transform="" style="fill: rgb(255, 255, 255);">
<rect width="100" height="100"/>
</g></g><g transform="translate(418,912) scale(0.38,0.38)"><g transform="" style="fill: rgb(255, 255, 255);">
<rect width="100" height="100"/>
</g></g><g transform="translate(532,912) scale(0.38,0.38)"><g transform="" style="fill: rgb(255, 255, 255);">
<rect width="100" height="100"/>
</g></g><g transform="translate(646,912) scale(0.38,0.38)"><g transform="" style="fill: rgb(255, 255, 255);">
<rect width="100" height="100"/>
</g></g><g transform="translate(760,912) scale(0.38,0.38)"><g transform="" style="fill: rgb(255, 255, 255);">
<rect width="100" height="100"/>
</g></g><g transform="translate(798,912) scale(0.38,0.38)"><g transform="" style="fill: rgb(255, 255, 255);">
<rect width="100" height="100"/>
</g></g><g transform="translate(836,912) scale(0.38,0.38)"><g transform="" style="fill: rgb(255, 255, 255);">
<rect width="100" height="100"/>
</g></g><g transform="translate(874,912) scale(0.38,0.38)"><g transform="" style="fill: rgb(255, 255, 255);">
<rect width="100" height="100"/>
</g></g><g transform="translate(912,912) scale(0.38,0.38)"><g transform="" style="fill: rgb(255, 255, 255);">
<rect width="100" height="100"/>
</g></g><g transform="translate(1026,912) scale(0.38,0.38)"><g transform="" style="fill: rgb(255, 255, 255);">
<rect width="100" height="100"/>
</g></g><g transform="translate(1064,912) scale(2.7142857142857,2.7142857142857)"><g transform="" style="fill: rgb(255, 255, 255);">
    <path d="M13.999,13.999H0V0.028v-0.029h3.43C9.269-0.001,13.999,6.267,13.999,13.999z"/>
</g></g><g transform="translate(380,950) scale(2.7142857142857,2.7142857142857)"><g transform="" style="fill: rgb(255, 255, 255);">
        <path d="M0-0.001h14v13.97v0.029l-3.431,0.001C4.731,13.999,0,7.731,0-0.001z"/>
</g></g><g transform="translate(418,950) scale(0.38,0.38)"><g transform="" style="fill: rgb(255, 255, 255);">
<rect width="100" height="100"/>
</g></g><g transform="translate(456,950) scale(2.7142857142857,2.7142857142857)"><g transform="" style="fill: rgb(255, 255, 255);">
    <path d="M13.999,13.999H0V0.028v-0.029h3.43C9.269-0.001,13.999,6.267,13.999,13.999z"/>
</g></g><g transform="translate(532,950) scale(0.38,0.38)"><g transform="" style="fill: rgb(255, 255, 255);">
<rect width="100" height="100"/>
</g></g><g transform="translate(608,950) scale(2.7142857142857,2.7142857142857)"><g transform="" style="fill: rgb(255, 255, 255);">
    <path d="M13.999,0v14c0,0-9.151-4.381-14-0.551C-0.001,13.449-0.242,0,13.999,0z"/>
</g></g><g transform="translate(646,950) scale(2.7142857142857,2.7142857142857)"><g transform="" style="fill: rgb(255, 255, 255);">
    <path d="M0,14V0h13.971H14v3.43C14,9.27,7.732,14,0,14z"/>
</g></g><g transform="translate(760,950) scale(2.7142857142857,2.7142857142857)"><g transform="" style="fill: rgb(255, 255, 255);">
    <path d="M-0.001,0l14,0c0,0-4.381,9.151-0.551,14C13.448,14-0.001,14.24-0.001,0z"/>
</g></g><g transform="translate(874,950) scale(0.38,0.38)"><g transform="" style="fill: rgb(255, 255, 255);">
<rect width="100" height="100"/>
</g></g><g transform="translate(912,950) scale(0.38,0.38)"><g transform="" style="fill: rgb(255, 255, 255);">
<rect width="100" height="100"/>
</g></g><g transform="translate(988,950) scale(2.7142857142857,2.7142857142857)"><g transform="" style="fill: rgb(255, 255, 255);">
    <path d="M13.999,0v14c0,0-9.151-4.381-14-0.551C-0.001,13.449-0.242,0,13.999,0z"/>
</g></g><g transform="translate(1026,950) scale(0.38,0.38)"><g transform="" style="fill: rgb(255, 255, 255);">
<rect width="100" height="100"/>
</g></g><g transform="translate(1064,950) scale(0.38,0.38)"><g transform="" style="fill: rgb(255, 255, 255);">
<rect width="100" height="100"/>
</g></g><g transform="translate(304,988) scale(2.7142857142857,2.7142857142857)"><g transform="" style="fill: rgb(255, 255, 255);">
    <path d="M13.999,0v14c0,0-9.151-4.381-14-0.551C-0.001,13.449-0.242,0,13.999,0z"/>
</g></g><g transform="translate(342,988) scale(2.7142857142857,2.7142857142857)"><g transform="" style="fill: rgb(255, 255, 255);">
    <path d="M0,14V0c0,0,9.15,4.38,14,0.55C14,0.55,14.24,14,0,14z"/>
</g></g><g transform="translate(456,988) scale(0.38,0.38)"><g transform="" style="fill: rgb(255, 255, 255);">
<rect width="100" height="100"/>
</g></g><g transform="translate(494,988) scale(0.38,0.38)"><g transform="" style="fill: rgb(255, 255, 255);">
<rect width="100" height="100"/>
</g></g><g transform="translate(532,988) scale(0.38,0.38)"><g transform="" style="fill: rgb(255, 255, 255);">
<rect width="100" height="100"/>
</g></g><g transform="translate(722,988) scale(2.7142857142857,2.7142857142857)"><g transform="" style="fill: rgb(255, 255, 255);">
    <path d="M14,14H0c0,0,4.38-9.15,0.55-14C0.55,0,14-0.24,14,14z"/>
</g></g><g transform="translate(874,988) scale(0.38,0.38)"><g transform="" style="fill: rgb(255, 255, 255);">
<rect width="100" height="100"/>
</g></g><g transform="translate(912,988) scale(0.38,0.38)"><g transform="" style="fill: rgb(255, 255, 255);">
<rect width="100" height="100"/>
</g></g><g transform="translate(950,988) scale(2.7142857142857,2.7142857142857)"><g transform="" style="fill: rgb(255, 255, 255);">
    <path d="M0,14V0c0,0,9.15,4.38,14,0.55C14,0.55,14.24,14,0,14z"/>
</g></g><g transform="translate(1064,988) scale(2.7142857142857,2.7142857142857)"><g transform="" style="fill: rgb(255, 255, 255);">
    <path d="M-0.001,0l14,0c0,0-4.381,9.151-0.551,14C13.448,14-0.001,14.24-0.001,0z"/>
</g></g><g transform="translate(418,1026) scale(2.7142857142857,2.7142857142857)"><g transform="" style="fill: rgb(255, 255, 255);">
    <path d="M13.999-0.001v14H0.029H0v-3.431C0,4.729,6.267-0.001,13.999-0.001z"/>
</g></g><g transform="translate(456,1026) scale(0.38,0.38)"><g transform="" style="fill: rgb(255, 255, 255);">
<rect width="100" height="100"/>
</g></g><g transform="translate(532,1026) scale(0.38,0.38)"><g transform="" style="fill: rgb(255, 255, 255);">
<rect width="100" height="100"/>
</g></g><g transform="translate(570,1026) scale(0.38,0.38)"><g transform="" style="fill: rgb(255, 255, 255);">
<rect width="100" height="100"/>
</g></g><g transform="translate(608,1026) scale(0.38,0.38)"><g transform="" style="fill: rgb(255, 255, 255);">
<rect width="100" height="100"/>
</g></g><g transform="translate(646,1026) scale(2.7142857142857,2.7142857142857)"><g transform="" style="fill: rgb(255, 255, 255);">
    <path d="M13.999,13.999H0V0.028v-0.029h3.43C9.269-0.001,13.999,6.267,13.999,13.999z"/>
</g></g><g transform="translate(722,1026) scale(0.38,0.38)"><g transform="" style="fill: rgb(255, 255, 255);">
<rect width="100" height="100"/>
</g></g><g transform="translate(760,1026) scale(0.38,0.38)"><g transform="" style="fill: rgb(255, 255, 255);">
<rect width="100" height="100"/>
</g></g><g transform="translate(798,1026) scale(0.38,0.38)"><g transform="" style="fill: rgb(255, 255, 255);">
<rect width="100" height="100"/>
</g></g><g transform="translate(836,1026) scale(0.38,0.38)"><g transform="" style="fill: rgb(255, 255, 255);">
<rect width="100" height="100"/>
</g></g><g transform="translate(874,1026) scale(2.7142857142857,2.7142857142857)"><g transform="" style="fill: rgb(255, 255, 255);">
    <path d="M0,14V0h13.971H14v3.43C14,9.27,7.732,14,0,14z"/>
</g></g><g transform="translate(1026,1026) scale(2.7142857142857,2.7142857142857)"><g transform="" style="fill: rgb(255, 255, 255);">
    <path d="M14,14H0c0,0,4.38-9.15,0.55-14C0.55,0,14-0.24,14,14z"/>
</g></g><g transform="translate(304,1064) scale(0.076,0.076)"><g transform="" style="fill: rgb(255, 255, 255);">
<path d="M250,0c138.077,0,250,111.93,250,250c0,138.077-111.923,250-250,250C111.93,500,0,388.077,0,250C0,111.93,111.93,0,250,0z"
	/>
</g></g><g transform="translate(418,1064) scale(2.7142857142857,2.7142857142857)"><g transform="" style="fill: rgb(255, 255, 255);">
        <path d="M0-0.001h14v13.97v0.029l-3.431,0.001C4.731,13.999,0,7.731,0-0.001z"/>
</g></g><g transform="translate(456,1064) scale(2.7142857142857,2.7142857142857)"><g transform="" style="fill: rgb(255, 255, 255);">
    <path d="M0,14V0h13.971H14v3.43C14,9.27,7.732,14,0,14z"/>
</g></g><g transform="translate(532,1064) scale(2.7142857142857,2.7142857142857)"><g transform="" style="fill: rgb(255, 255, 255);">
    <path d="M-0.001,0l14,0c0,0-4.381,9.151-0.551,14C13.448,14-0.001,14.24-0.001,0z"/>
</g></g><g transform="translate(608,1064) scale(2.7142857142857,2.7142857142857)"><g transform="" style="fill: rgb(255, 255, 255);">
        <path d="M0-0.001h14v13.97v0.029l-3.431,0.001C4.731,13.999,0,7.731,0-0.001z"/>
</g></g><g transform="translate(646,1064) scale(2.7142857142857,2.7142857142857)"><g transform="" style="fill: rgb(255, 255, 255);">
    <path d="M0,14V0h13.971H14v3.43C14,9.27,7.732,14,0,14z"/>
</g></g><g transform="translate(722,1064) scale(2.7142857142857,2.7142857142857)"><g transform="" style="fill: rgb(255, 255, 255);">
        <path d="M0-0.001h14v13.97v0.029l-3.431,0.001C4.731,13.999,0,7.731,0-0.001z"/>
</g></g><g transform="translate(760,1064) scale(0.38,0.38)"><g transform="" style="fill: rgb(255, 255, 255);">
<rect width="100" height="100"/>
</g></g><g transform="translate(798,1064) scale(0.38,0.38)"><g transform="" style="fill: rgb(255, 255, 255);">
<rect width="100" height="100"/>
</g></g><g transform="translate(836,1064) scale(2.7142857142857,2.7142857142857)"><g transform="" style="fill: rgb(255, 255, 255);">
    <path d="M0,14V0h13.971H14v3.43C14,9.27,7.732,14,0,14z"/>
</g></g><g transform="translate(912,1064) scale(2.7142857142857,2.7142857142857)"><g transform="" style="fill: rgb(255, 255, 255);">
    <path d="M13.999,0v14c0,0-9.151-4.381-14-0.551C-0.001,13.449-0.242,0,13.999,0z"/>
</g></g><g transform="translate(950,1064) scale(2.7142857142857,2.7142857142857)"><g transform="" style="fill: rgb(255, 255, 255);">
    <path d="M0,14V0c0,0,9.15,4.38,14,0.55C14,0.55,14.24,14,0,14z"/>
</g></g><g transform="translate(1026,1064) scale(2.7142857142857,2.7142857142857)"><g transform="" style="fill: rgb(255, 255, 255);">
        <path d="M0-0.001h14v13.97v0.029l-3.431,0.001C4.731,13.999,0,7.731,0-0.001z"/>
</g></g><g transform="translate(1064,1064) scale(2.7142857142857,2.7142857142857)"><g transform="" style="fill: rgb(255, 255, 255);">
    <path d="M0,14V0c0,0,9.15,4.38,14,0.55C14,0.55,14.24,14,0,14z"/>
</g></g></g></mask></defs></g><rect x="0" y="0" width="1102" height="1102" fill="url(#grad)" mask="url(#gmask)" /><g transform="translate(0,0) scale(2.6078431372549, 2.6078431372549)"><g transform="" style="fill: rgb(48, 50, 54);">
<g>
	<path style="fill:none;" d="M51,16c-19.299,0-35,15.701-35,35s15.701,35,35,35s35-15.701,35-35S70.299,16,51,16z"/>
	<path d="M51,1C23.387,1,1,23.387,1,51s22.387,50,50,50s50-22.387,50-50S78.613,1,51,1z M51,86c-19.299,0-35-15.701-35-35
		s15.701-35,35-35s35,15.701,35,35S70.299,86,51,86z"/>
</g>
</g></g><g transform="translate(836,0) scale(2.6078431372549, 2.6078431372549)"><g transform="" style="fill: rgb(48, 50, 54);">
<g>
	<path style="fill:none;" d="M51,16c-19.299,0-35,15.701-35,35s15.701,35,35,35s35-15.701,35-35S70.299,16,51,16z"/>
	<path d="M51,1C23.387,1,1,23.387,1,51s22.387,50,50,50s50-22.387,50-50S78.613,1,51,1z M51,86c-19.299,0-35-15.701-35-35
		s15.701-35,35-35s35,15.701,35,35S70.299,86,51,86z"/>
</g>
</g></g><g transform="translate(0,836) scale(2.6078431372549, 2.6078431372549)"><g transform="" style="fill: rgb(48, 50, 54);">
<g>
	<path style="fill:none;" d="M51,16c-19.299,0-35,15.701-35,35s15.701,35,35,35s35-15.701,35-35S70.299,16,51,16z"/>
	<path d="M51,1C23.387,1,1,23.387,1,51s22.387,50,50,50s50-22.387,50-50S78.613,1,51,1z M51,86c-19.299,0-35-15.701-35-35
		s15.701-35,35-35s35,15.701,35,35S70.299,86,51,86z"/>
</g>
</g></g><g transform="translate(76,76) scale(1.1176470588235, 1.1176470588235)"><g transform="" style="fill: rgb(48, 50, 54);">
<circle cx="50" cy="50" r="50"/>
</g></g><g transform="translate(912,76) scale(1.1176470588235, 1.1176470588235)"><g transform="" style="fill: rgb(48, 50, 54);">
<circle cx="50" cy="50" r="50"/>
</g></g><g transform="translate(76,912) scale(1.1176470588235, 1.1176470588235)"><g transform="" style="fill: rgb(48, 50, 54);">
<circle cx="50" cy="50" r="50"/>
</g></g></g></svg>